<svg xmlns="http://www.w3.org/2000/svg" xmlns:xlink="http://www.w3.org/1999/xlink" width="286" zoomAndPan="magnify" viewBox="0 0 214.5 60" height="80" preserveAspectRatio="xMidYMid meet" version="1.0"><defs><g/><clipPath id="id1"><path d="M 5.785156 6.070312 L 53.785156 6.070312 L 53.785156 54.070312 L 5.785156 54.070312 Z M 5.785156 6.070312 " clip-rule="nonzero"/></clipPath></defs><g clip-path="url(#id1)"><path fill="#f97316" d="M 47.644531 13.058594 L 46.789062 13.058594 L 46.789062 12.203125 C 46.792969 8.820312 44.039062 6.070312 40.65625 6.070312 L 18.910156 6.070312 C 15.527344 6.070312 12.777344 8.820312 12.777344 12.203125 L 12.777344 13.058594 L 11.917969 13.058594 C 8.539062 13.058594 5.785156 15.8125 5.785156 19.195312 L 5.785156 40.941406 C 5.785156 44.324219 8.539062 47.074219 11.921875 47.074219 L 12.777344 47.074219 L 12.777344 47.929688 C 12.777344 51.3125 15.527344 54.066406 18.910156 54.066406 L 40.65625 54.066406 C 44.039062 54.066406 46.792969 51.3125 46.792969 47.929688 L 46.792969 47.074219 L 47.648438 47.074219 C 51.03125 47.074219 53.78125 44.324219 53.78125 40.941406 L 53.78125 19.195312 C 53.78125 15.8125 51.027344 13.058594 47.644531 13.058594 Z M 50.832031 40.941406 C 50.832031 42.695312 49.402344 44.125 47.644531 44.125 L 46.789062 44.125 L 46.789062 33.351562 C 45.101562 33.738281 43.84375 35.253906 43.84375 37.058594 L 43.84375 44.125 L 36.773438 44.125 C 34.96875 44.125 33.453125 45.386719 33.066406 47.074219 L 43.84375 47.074219 L 43.84375 47.929688 C 43.84375 49.6875 42.414062 51.117188 40.65625 51.117188 L 18.910156 51.117188 C 17.152344 51.117188 15.722656 49.6875 15.722656 47.929688 L 15.722656 47.074219 L 26.5 47.074219 C 26.113281 45.386719 24.597656 44.125 22.792969 44.125 L 15.722656 44.125 L 15.722656 37.058594 C 15.722656 35.253906 14.460938 33.738281 12.777344 33.351562 L 12.777344 44.125 L 11.921875 44.125 C 10.164062 44.125 8.734375 42.695312 8.734375 40.941406 L 8.734375 19.195312 C 8.734375 17.4375 10.164062 16.007812 11.921875 16.007812 L 12.777344 16.007812 L 12.777344 26.785156 C 14.464844 26.394531 15.722656 24.878906 15.722656 23.078125 L 15.722656 16.007812 L 22.792969 16.007812 C 24.597656 16.007812 26.113281 14.746094 26.5 13.058594 L 15.722656 13.058594 L 15.722656 12.203125 C 15.722656 10.449219 17.152344 9.019531 18.910156 9.019531 L 40.65625 9.019531 C 42.414062 9.019531 43.84375 10.449219 43.84375 12.203125 L 43.84375 13.058594 L 33.066406 13.058594 C 33.453125 14.746094 34.96875 16.007812 36.773438 16.007812 L 43.84375 16.007812 L 43.84375 23.078125 C 43.84375 24.878906 45.105469 26.394531 46.789062 26.785156 L 46.789062 16.007812 L 47.644531 16.007812 C 49.402344 16.007812 50.832031 17.4375 50.832031 19.195312 Z M 50.832031 40.941406 " fill-opacity="1" fill-rule="nonzero"/></g><g fill="#000000" fill-opacity="1"><g transform="translate(67.445027, 40.489412)"><g><path d="M 5.515625 -8.703125 L 5.515625 0 L 2.578125 0 L 2.578125 -22.21875 L 10.765625 -22.21875 C 13.203125 -22.21875 15.109375 -21.597656 16.484375 -20.359375 C 17.867188 -19.117188 18.5625 -17.472656 18.5625 -15.421875 C 18.5625 -13.265625 17.882812 -11.601562 16.53125 -10.4375 C 15.1875 -9.28125 13.257812 -8.703125 10.75 -8.703125 Z M 5.515625 -11.09375 L 10.765625 -11.09375 C 12.335938 -11.09375 13.539062 -11.460938 14.375 -12.203125 C 15.207031 -12.941406 15.625 -14.003906 15.625 -15.390625 C 15.625 -16.710938 15.207031 -17.769531 14.375 -18.5625 C 13.539062 -19.363281 12.394531 -19.78125 10.9375 -19.8125 L 5.515625 -19.8125 Z M 5.515625 -11.09375 "/></g></g></g><g fill="#000000" fill-opacity="1"><g transform="translate(87.154453, 40.489412)"><g><path d="M 10.109375 -13.984375 C 9.679688 -14.046875 9.222656 -14.078125 8.734375 -14.078125 C 6.878906 -14.078125 5.617188 -13.289062 4.953125 -11.71875 L 4.953125 0 L 2.140625 0 L 2.140625 -16.515625 L 4.890625 -16.515625 L 4.921875 -14.609375 C 5.847656 -16.078125 7.160156 -16.8125 8.859375 -16.8125 C 9.410156 -16.8125 9.828125 -16.742188 10.109375 -16.609375 Z M 10.109375 -13.984375 "/></g></g></g><g fill="#000000" fill-opacity="1"><g transform="translate(97.72615, 40.489412)"><g><path d="M 8.984375 0.3125 C 6.742188 0.3125 4.921875 -0.421875 3.515625 -1.890625 C 2.117188 -3.367188 1.421875 -5.335938 1.421875 -7.796875 L 1.421875 -8.3125 C 1.421875 -9.945312 1.734375 -11.410156 2.359375 -12.703125 C 2.984375 -13.992188 3.859375 -15 4.984375 -15.71875 C 6.109375 -16.445312 7.328125 -16.8125 8.640625 -16.8125 C 10.785156 -16.8125 12.453125 -16.101562 13.640625 -14.6875 C 14.828125 -13.28125 15.421875 -11.257812 15.421875 -8.625 L 15.421875 -7.453125 L 4.234375 -7.453125 C 4.273438 -5.816406 4.75 -4.5 5.65625 -3.5 C 6.570312 -2.5 7.734375 -2 9.140625 -2 C 10.140625 -2 10.984375 -2.203125 11.671875 -2.609375 C 12.359375 -3.015625 12.960938 -3.554688 13.484375 -4.234375 L 15.21875 -2.890625 C 13.832031 -0.753906 11.753906 0.3125 8.984375 0.3125 Z M 8.640625 -14.5 C 7.492188 -14.5 6.535156 -14.082031 5.765625 -13.25 C 4.992188 -12.425781 4.515625 -11.265625 4.328125 -9.765625 L 12.609375 -9.765625 L 12.609375 -9.984375 C 12.523438 -11.410156 12.132812 -12.519531 11.4375 -13.3125 C 10.75 -14.101562 9.816406 -14.5 8.640625 -14.5 Z M 8.640625 -14.5 "/></g></g></g><g fill="#000000" fill-opacity="1"><g transform="translate(114.277797, 40.489412)"><g><path d="M 11.75 -4.375 C 11.75 -5.144531 11.460938 -5.738281 10.890625 -6.15625 C 10.316406 -6.582031 9.3125 -6.945312 7.875 -7.25 C 6.445312 -7.550781 5.3125 -7.914062 4.46875 -8.34375 C 3.632812 -8.769531 3.015625 -9.273438 2.609375 -9.859375 C 2.210938 -10.453125 2.015625 -11.160156 2.015625 -11.984375 C 2.015625 -13.328125 2.585938 -14.46875 3.734375 -15.40625 C 4.878906 -16.34375 6.34375 -16.8125 8.125 -16.8125 C 9.988281 -16.8125 11.503906 -16.328125 12.671875 -15.359375 C 13.835938 -14.398438 14.421875 -13.164062 14.421875 -11.65625 L 11.578125 -11.65625 C 11.578125 -12.425781 11.25 -13.09375 10.59375 -13.65625 C 9.9375 -14.21875 9.113281 -14.5 8.125 -14.5 C 7.09375 -14.5 6.285156 -14.273438 5.703125 -13.828125 C 5.128906 -13.378906 4.84375 -12.789062 4.84375 -12.0625 C 4.84375 -11.382812 5.109375 -10.875 5.640625 -10.53125 C 6.179688 -10.1875 7.15625 -9.851562 8.5625 -9.53125 C 9.976562 -9.21875 11.125 -8.84375 12 -8.40625 C 12.875 -7.96875 13.519531 -7.441406 13.9375 -6.828125 C 14.363281 -6.210938 14.578125 -5.460938 14.578125 -4.578125 C 14.578125 -3.097656 13.984375 -1.910156 12.796875 -1.015625 C 11.617188 -0.128906 10.085938 0.3125 8.203125 0.3125 C 6.878906 0.3125 5.707031 0.078125 4.6875 -0.390625 C 3.675781 -0.859375 2.882812 -1.507812 2.3125 -2.34375 C 1.738281 -3.1875 1.453125 -4.097656 1.453125 -5.078125 L 4.265625 -5.078125 C 4.316406 -4.128906 4.695312 -3.378906 5.40625 -2.828125 C 6.113281 -2.273438 7.046875 -2 8.203125 -2 C 9.273438 -2 10.132812 -2.210938 10.78125 -2.640625 C 11.425781 -3.078125 11.75 -3.65625 11.75 -4.375 Z M 11.75 -4.375 "/></g></g></g><g fill="#000000" fill-opacity="1"><g transform="translate(130.387049, 40.489412)"><g><path d="M 11.75 -4.375 C 11.75 -5.144531 11.460938 -5.738281 10.890625 -6.15625 C 10.316406 -6.582031 9.3125 -6.945312 7.875 -7.25 C 6.445312 -7.550781 5.3125 -7.914062 4.46875 -8.34375 C 3.632812 -8.769531 3.015625 -9.273438 2.609375 -9.859375 C 2.210938 -10.453125 2.015625 -11.160156 2.015625 -11.984375 C 2.015625 -13.328125 2.585938 -14.46875 3.734375 -15.40625 C 4.878906 -16.34375 6.34375 -16.8125 8.125 -16.8125 C 9.988281 -16.8125 11.503906 -16.328125 12.671875 -15.359375 C 13.835938 -14.398438 14.421875 -13.164062 14.421875 -11.65625 L 11.578125 -11.65625 C 11.578125 -12.425781 11.25 -13.09375 10.59375 -13.65625 C 9.9375 -14.21875 9.113281 -14.5 8.125 -14.5 C 7.09375 -14.5 6.285156 -14.273438 5.703125 -13.828125 C 5.128906 -13.378906 4.84375 -12.789062 4.84375 -12.0625 C 4.84375 -11.382812 5.109375 -10.875 5.640625 -10.53125 C 6.179688 -10.1875 7.15625 -9.851562 8.5625 -9.53125 C 9.976562 -9.21875 11.125 -8.84375 12 -8.40625 C 12.875 -7.96875 13.519531 -7.441406 13.9375 -6.828125 C 14.363281 -6.210938 14.578125 -5.460938 14.578125 -4.578125 C 14.578125 -3.097656 13.984375 -1.910156 12.796875 -1.015625 C 11.617188 -0.128906 10.085938 0.3125 8.203125 0.3125 C 6.878906 0.3125 5.707031 0.078125 4.6875 -0.390625 C 3.675781 -0.859375 2.882812 -1.507812 2.3125 -2.34375 C 1.738281 -3.1875 1.453125 -4.097656 1.453125 -5.078125 L 4.265625 -5.078125 C 4.316406 -4.128906 4.695312 -3.378906 5.40625 -2.828125 C 6.113281 -2.273438 7.046875 -2 8.203125 -2 C 9.273438 -2 10.132812 -2.210938 10.78125 -2.640625 C 11.425781 -3.078125 11.75 -3.65625 11.75 -4.375 Z M 11.75 -4.375 "/></g></g></g><g fill="#000000" fill-opacity="1"><g transform="translate(146.496301, 40.489412)"><g><path d="M 16.109375 -8.078125 C 16.109375 -5.546875 15.53125 -3.515625 14.375 -1.984375 C 13.21875 -0.453125 11.660156 0.3125 9.703125 0.3125 C 7.617188 0.3125 6.007812 -0.425781 4.875 -1.90625 L 4.734375 0 L 2.140625 0 L 2.140625 -23.4375 L 4.953125 -23.4375 L 4.953125 -14.6875 C 6.097656 -16.101562 7.671875 -16.8125 9.671875 -16.8125 C 11.679688 -16.8125 13.253906 -16.050781 14.390625 -14.53125 C 15.535156 -13.019531 16.109375 -10.945312 16.109375 -8.3125 Z M 13.296875 -8.390625 C 13.296875 -10.316406 12.921875 -11.800781 12.171875 -12.84375 C 11.429688 -13.894531 10.363281 -14.421875 8.96875 -14.421875 C 7.113281 -14.421875 5.773438 -13.554688 4.953125 -11.828125 L 4.953125 -4.6875 C 5.816406 -2.957031 7.164062 -2.09375 9 -2.09375 C 10.351562 -2.09375 11.40625 -2.613281 12.15625 -3.65625 C 12.914062 -4.707031 13.296875 -6.285156 13.296875 -8.390625 Z M 13.296875 -8.390625 "/></g></g></g><g fill="#000000" fill-opacity="1"><g transform="translate(164.024267, 40.489412)"><g><path d="M 5.203125 0 L 2.375 0 L 2.375 -23.4375 L 5.203125 -23.4375 Z M 5.203125 0 "/></g></g></g><g fill="#000000" fill-opacity="1"><g transform="translate(171.605989, 40.489412)"><g><path d="M 1.390625 -8.40625 C 1.390625 -10.019531 1.707031 -11.472656 2.34375 -12.765625 C 2.976562 -14.054688 3.863281 -15.050781 5 -15.75 C 6.132812 -16.457031 7.425781 -16.8125 8.875 -16.8125 C 11.125 -16.8125 12.941406 -16.03125 14.328125 -14.46875 C 15.722656 -12.914062 16.421875 -10.847656 16.421875 -8.265625 L 16.421875 -8.078125 C 16.421875 -6.460938 16.113281 -5.015625 15.5 -3.734375 C 14.882812 -2.460938 14.003906 -1.46875 12.859375 -0.75 C 11.710938 -0.0390625 10.394531 0.3125 8.90625 0.3125 C 6.664062 0.3125 4.851562 -0.460938 3.46875 -2.015625 C 2.082031 -3.578125 1.390625 -5.640625 1.390625 -8.203125 Z M 4.234375 -8.078125 C 4.234375 -6.242188 4.65625 -4.769531 5.5 -3.65625 C 6.351562 -2.550781 7.488281 -2 8.90625 -2 C 10.34375 -2 11.484375 -2.5625 12.328125 -3.6875 C 13.171875 -4.8125 13.59375 -6.382812 13.59375 -8.40625 C 13.59375 -10.21875 13.160156 -11.6875 12.296875 -12.8125 C 11.441406 -13.9375 10.300781 -14.5 8.875 -14.5 C 7.488281 -14.5 6.367188 -13.941406 5.515625 -12.828125 C 4.660156 -11.722656 4.234375 -10.140625 4.234375 -8.078125 Z M 4.234375 -8.078125 "/></g></g></g><g fill="#000000" fill-opacity="1"><g transform="translate(189.423798, 40.489412)"><g><path d="M 7.671875 -10.484375 L 11.34375 -16.515625 L 14.640625 -16.515625 L 9.234375 -8.34375 L 14.796875 0 L 11.53125 0 L 7.71875 -6.1875 L 3.90625 0 L 0.625 0 L 6.1875 -8.34375 L 0.796875 -16.515625 L 4.0625 -16.515625 Z M 7.671875 -10.484375 "/></g></g></g></svg>