<svg id="Layer_1" data-name="Layer 1" xmlns="http://www.w3.org/2000/svg" viewBox="0 0 133.68 25"><defs><style>.cls-1{fill:#e76459;}</style></defs><path class="cls-1" d="M44,4.21V20.87L44,21a4.57,4.57,0,0,1-1.62,3.28,2.42,2.42,0,0,1-1.52.69H3.17a1.07,1.07,0,0,1-.25,0A4.37,4.37,0,0,1,0,20.68C0,15.26,0,9.83,0,4.41A4.48,4.48,0,0,1,1.79.7,3.66,3.66,0,0,1,4.09,0h35c.45,0,.9,0,1.34,0a3.93,3.93,0,0,1,3.32,2.85A8.45,8.45,0,0,1,44,4.21ZM22,23.56H40.47a1.53,1.53,0,0,0,.36-.07,2.94,2.94,0,0,0,1.87-2.95c0-2.07,0-4.15,0-6.22V4.62A3.18,3.18,0,0,0,41.57,2,.45.45,0,0,0,41,1.93c-.87.42-1.74.81-2.61,1.21L22.63,10.4a.75.75,0,0,1-.73.08c-2.75-1.3-5.51-2.56-8.27-3.82L3.15,1.83a.44.44,0,0,0-.5,0A3,3,0,0,0,1.31,4.42q0,8.13,0,16.26a3,3,0,0,0,1.37,2.59,2.32,2.32,0,0,0,1.31.3Z"/><path class="cls-1" d="M64.28,12c.28-.41.49-.74.73-1a4.31,4.31,0,0,1,6-.62,3.88,3.88,0,0,1,1.22,2.79q.06,3,0,6a1.74,1.74,0,0,1-2,1.91,1.49,1.49,0,0,1-1.52-1.2,4.46,4.46,0,0,1-.13-1.15V14.45c0-.2,0-.41,0-.61,0-1.26-.68-2.05-1.73-2.07a2.07,2.07,0,0,0-2.24,2.05c0,1.19,0,2.39,0,3.59,0,.65,0,1.3-.07,1.95A1.83,1.83,0,0,1,61.84,21a1.37,1.37,0,0,1-.82-.89,4.07,4.07,0,0,1-.21-1.43V14.32a6.41,6.41,0,0,0,0-.88,1.77,1.77,0,0,0-1.36-1.65,2.21,2.21,0,0,0-2.31,1.05,2.72,2.72,0,0,0-.29,1.35c0,1.46,0,2.92,0,4.38a6.51,6.51,0,0,1-.06.88,1.77,1.77,0,0,1-2.3,1.61,1.42,1.42,0,0,1-1.13-.93,3.88,3.88,0,0,1-.21-1.43c0-2.43-.1-4.87,0-7.31a1.67,1.67,0,0,1,2.21-1.7,1.52,1.52,0,0,1,1.27,1.1,2.17,2.17,0,0,0,.24.75,4.28,4.28,0,0,1,3.89-2.09A3.63,3.63,0,0,1,64.28,12Z"/><path class="cls-1" d="M118.52,19a5.46,5.46,0,0,1-.86,1,4.68,4.68,0,0,1-5.4.31,3.32,3.32,0,0,1-.14-5.18,6.47,6.47,0,0,1,3.44-1.18,15.09,15.09,0,0,1,2.33-.09c.41,0,.54-.17.53-.56,0-1.09-.67-1.65-1.88-1.61a12,12,0,0,0-2.53.38c-.23.06-.46.12-.69.16a1.11,1.11,0,0,1-1.24-.41,1.25,1.25,0,0,1,.21-1.38,2.64,2.64,0,0,1,1.31-.78,10.6,10.6,0,0,1,4.75-.29,3.9,3.9,0,0,1,3.43,3.73,43.32,43.32,0,0,1,0,6.24,1.49,1.49,0,0,1-1.71,1.54,1.38,1.38,0,0,1-1.33-1C118.66,19.61,118.6,19.34,118.52,19Zm-1.21-3.39a4.33,4.33,0,0,0-2.26.49,1.42,1.42,0,0,0-.74,1.61A1.47,1.47,0,0,0,115.54,19a2.31,2.31,0,0,0,2.85-2.14C118.52,15.66,118.49,15.62,117.31,15.63Z"/><path class="cls-1" d="M81,19a4.24,4.24,0,0,1-3.57,2,3.6,3.6,0,0,1-3.79-2.14,3.35,3.35,0,0,1,1.89-4.32,9.82,9.82,0,0,1,3.6-.7c.43,0,.87,0,1.3,0s.47-.14.48-.48c0-1.13-.69-1.76-2-1.69a11.9,11.9,0,0,0-2.44.37l-.68.17a1.15,1.15,0,0,1-1.28-.42,1.24,1.24,0,0,1,.25-1.41,2.57,2.57,0,0,1,1.28-.74,10.5,10.5,0,0,1,4.66-.3,3.88,3.88,0,0,1,3.51,3.86c.09,2,.05,4,0,6a1.5,1.5,0,0,1-1.67,1.65,1.38,1.38,0,0,1-1.37-1A7.25,7.25,0,0,1,81,19Zm-.1-2.6c0-.72,0-.75-.75-.75-.33,0-.65,0-1,0a3.75,3.75,0,0,0-1.72.52,1.43,1.43,0,0,0-.7,1.42,1.46,1.46,0,0,0,1,1.28,2.26,2.26,0,0,0,2.84-1A3,3,0,0,0,80.88,16.38Z"/><path class="cls-1" d="M104.46,9.18a9.4,9.4,0,0,1,3,.44,3,3,0,0,1,1,.59,1.2,1.2,0,0,1,.29,1.33,1.12,1.12,0,0,1-1.17.49,4.25,4.25,0,0,1-.72-.2,7.29,7.29,0,0,0-3.41-.2,1.66,1.66,0,0,0-.49.16.75.75,0,0,0-.09,1.35,3.56,3.56,0,0,0,1.18.43c1,.22,1.91.43,2.86.67a4.73,4.73,0,0,1,1.83.89,3.08,3.08,0,0,1-.18,4.69,5.39,5.39,0,0,1-2.83,1.12,11.44,11.44,0,0,1-4.65-.41A3.8,3.8,0,0,1,99.93,20a1.29,1.29,0,0,1-.61-1.6c.23-.49.82-.68,1.55-.47a18.91,18.91,0,0,0,2.55.71,4.43,4.43,0,0,0,2.08-.06,1.16,1.16,0,0,0,.85-1.15c0-.54-.41-.75-.83-.87-.84-.24-1.69-.41-2.53-.62a9.07,9.07,0,0,1-2.33-.81,2.73,2.73,0,0,1-1.47-2.62A2.74,2.74,0,0,1,100.68,10,7.63,7.63,0,0,1,104.46,9.18Z"/><path class="cls-1" d="M129.91,9.23a7.44,7.44,0,0,1,2.34.37,3.15,3.15,0,0,1,1,.53,1.31,1.31,0,0,1,.46,1.54,1.22,1.22,0,0,1-1.38.63c-.57-.08-1.13-.21-1.7-.28a2.56,2.56,0,0,0-2.9,2,4.19,4.19,0,0,0,0,2.11,2.62,2.62,0,0,0,3.09,2.1c.54-.07,1.07-.2,1.61-.29a1.18,1.18,0,0,1,1,2.14,2.62,2.62,0,0,1-.34.24,6.75,6.75,0,0,1-7.38-.78,5.78,5.78,0,0,1-1.53-6.21,5.57,5.57,0,0,1,4.71-4,4.62,4.62,0,0,1,.65-.08A3.53,3.53,0,0,1,129.91,9.23Z"/><path class="cls-1" d="M96.88,12.66v5.69a5.71,5.71,0,0,1,0,.83,1.82,1.82,0,0,1-2.58,1.58,1.41,1.41,0,0,1-.89-1,4.27,4.27,0,0,1-.18-1.33V6.78a4.55,4.55,0,0,1,.12-1.11A1.52,1.52,0,0,1,94.9,4.36a1.68,1.68,0,0,1,1.84,1.18,3.46,3.46,0,0,1,.14,1.11Z"/><path class="cls-1" d="M86.88,15.15c0-1.32,0-2.63.06-4a1.71,1.71,0,0,1,2.24-1.74,1.52,1.52,0,0,1,1.22,1,3.7,3.7,0,0,1,.21,1.28v6.79a4.39,4.39,0,0,1-.13,1,1.63,1.63,0,0,1-1.57,1.29,1.66,1.66,0,0,1-2-1.76C86.85,17.79,86.89,16.47,86.88,15.15Z"/><path class="cls-1" d="M88.8,3.86a2.37,2.37,0,0,1,1.08.25,1.36,1.36,0,0,1,.86,1.27,1.35,1.35,0,0,1-.86,1.32,2.5,2.5,0,0,1-2.29,0,1.36,1.36,0,0,1-.82-1.2,1.4,1.4,0,0,1,.74-1.3A2.34,2.34,0,0,1,88.8,3.86Z"/></svg>