<?xml version="1.0" encoding="UTF-8"?><svg id="Layer_1" xmlns="http://www.w3.org/2000/svg" viewBox="0 0 133.68 25"><defs><style>.cls-1{fill:#ef4160;}</style></defs><path class="cls-1" d="M44,4.21V20.87s-.02,.1-.03,.15c-.12,1.38-.66,2.48-1.62,3.28-.45,.38-.95,.69-1.52,.69-12.55,0-25.11,0-37.66,0-.09,0-.17,0-.25-.03C1.25,24.51,.01,22.71,0,20.68,0,15.26,0,9.83,.02,4.41,.02,2.82,.66,1.57,1.79,.7,2.49,.17,3.27,0,4.09,0,15.75,0,27.42,0,39.08,0c.45,0,.89,0,1.34,.03,1.45,.08,2.82,1.25,3.31,2.86,.13,.43,.21,.88,.26,1.33ZM21.99,23.56c5.98,0,11.95,0,17.93,0,.18,0,.37,0,.55,0,.12,0,.24-.03,.36-.07,1.13-.36,1.87-1.52,1.87-2.95,0-2.07,0-4.15,0-6.23,0-3.23,0-6.46,0-9.7,0-1.1-.38-1.97-1.14-2.61-.18-.15-.33-.18-.54-.08-.86,.41-1.73,.81-2.6,1.2-5.26,2.42-10.53,4.84-15.79,7.26-.24,.11-.43,.21-.73,.07-2.75-1.3-5.51-2.55-8.27-3.82C10.14,5.05,6.64,3.44,3.15,1.83c-.19-.09-.34-.08-.5,.04-.82,.58-1.33,1.4-1.34,2.55-.01,5.42-.01,10.84,0,16.27,0,1.17,.51,2.02,1.37,2.59,.41,.27,.85,.3,1.3,.3,6,0,12,0,18,0Z"/><path class="cls-1" d="M64.28,12.04c.28-.41,.49-.74,.73-1.04,1.42-1.78,4.41-2.09,5.97-.62,.8,.75,1.2,1.71,1.22,2.79,.04,2,.03,4.01,0,6.01-.02,1.3-.75,1.96-2.01,1.91-.81-.03-1.3-.42-1.51-1.2-.1-.38-.14-.76-.14-1.15,0-1.43,0-2.86,0-4.29,0-.2,0-.4,0-.61-.03-1.27-.69-2.06-1.73-2.08-1.26-.03-2.2,.8-2.25,2.05-.05,1.19-.03,2.39-.03,3.59,0,.65,0,1.3-.07,1.95-.14,1.4-1.31,2.12-2.63,1.61-.42-.16-.68-.48-.82-.9-.16-.46-.21-.94-.21-1.42,0-1.44,0-2.89,0-4.33,0-.29,0-.59-.04-.88-.13-.9-.64-1.51-1.35-1.65-.93-.17-1.89,.27-2.31,1.05-.23,.42-.3,.88-.3,1.35,0,1.46,0,2.92,0,4.38,0,.29-.02,.59-.06,.88-.2,1.26-1.04,1.85-2.3,1.62-.55-.1-.92-.42-1.12-.94-.18-.46-.21-.94-.22-1.42,0-2.44-.1-4.88,.05-7.31,.08-1.33,.91-1.94,2.22-1.7,.65,.12,1.05,.49,1.26,1.1,.08,.23,.05,.49,.25,.76,.92-1.42,2.22-2.14,3.88-2.09,1.7,.05,2.9,.9,3.52,2.58Z"/><path class="cls-1" d="M118.52,19.02c-.28,.37-.55,.7-.86,.97-1.4,1.23-3.91,1.37-5.4,.3-1.7-1.21-1.77-3.87-.14-5.18,1-.81,2.21-1.02,3.44-1.18,.77-.1,1.55-.11,2.33-.09,.41,.01,.55-.17,.54-.56-.02-1.09-.68-1.65-1.89-1.6-.86,.03-1.7,.16-2.53,.38-.23,.06-.45,.11-.68,.16-.56,.11-1.02-.05-1.24-.41-.23-.38-.14-.98,.21-1.39,.35-.4,.81-.63,1.31-.77,1.56-.44,3.15-.57,4.75-.29,2.01,.35,3.27,1.7,3.43,3.73,.16,2.08,.14,4.16,0,6.24-.07,1.05-.72,1.6-1.72,1.54-.66-.04-1.11-.36-1.32-1-.08-.26-.14-.53-.22-.85Zm-1.22-3.39c-.79,0-1.56,.08-2.25,.49-.64,.38-.87,.91-.75,1.61,.12,.65,.56,1.09,1.23,1.24,1.45,.31,2.69-.62,2.85-2.14,.13-1.17,.09-1.21-1.08-1.2Z"/><path class="cls-1" d="M80.98,18.98c-.87,1.36-2.09,1.95-3.57,2.02-1.75,.09-3.24-.65-3.79-2.14-.65-1.76,.14-3.54,1.89-4.32,1.14-.51,2.37-.64,3.6-.7,.43-.02,.87-.02,1.31,0,.33,0,.47-.13,.48-.47,.03-1.14-.69-1.76-1.95-1.69-.83,.04-1.64,.16-2.44,.37-.23,.06-.45,.12-.68,.16-.59,.12-1.06-.03-1.28-.41-.24-.39-.13-.99,.26-1.42,.35-.38,.79-.61,1.28-.74,1.53-.43,3.09-.56,4.66-.29,2.12,.36,3.41,1.72,3.51,3.86,.09,2,.05,4.01,0,6.01-.02,1.11-.66,1.68-1.66,1.65-.68-.02-1.15-.34-1.38-.99-.09-.26-.14-.53-.23-.9Zm-.1-2.6c.02-.72-.02-.76-.75-.75-.33,0-.65,0-.98,.02-.61,.05-1.2,.18-1.72,.52-.53,.33-.75,.82-.7,1.42,.06,.6,.38,1.04,.95,1.28,1.05,.44,2.31,0,2.84-1.01,.24-.46,.36-.95,.36-1.48Z"/><path class="cls-1" d="M104.46,9.18c1.01,.02,2.02,.09,2.98,.44,.37,.13,.71,.32,.99,.59,.37,.35,.49,.93,.29,1.32-.19,.36-.67,.58-1.17,.49-.24-.04-.48-.12-.72-.2-1.12-.36-2.26-.38-3.41-.2-.17,.03-.34,.08-.49,.15-.59,.29-.63,.98-.09,1.35,.35,.24,.77,.33,1.18,.43,.95,.22,1.91,.43,2.86,.68,.66,.17,1.3,.44,1.84,.88,1.4,1.16,1.31,3.49-.18,4.7-.82,.67-1.79,1-2.83,1.11-1.58,.18-3.13,.06-4.66-.41-.4-.12-.78-.3-1.13-.54-.62-.43-.86-1.07-.61-1.6,.24-.49,.83-.69,1.55-.48,.85,.25,1.67,.6,2.55,.72,.69,.1,1.39,.17,2.08-.06,.54-.18,.86-.62,.85-1.15,0-.54-.41-.76-.83-.87-.84-.23-1.69-.41-2.54-.62-.8-.2-1.59-.42-2.33-.81-1.04-.56-1.48-1.48-1.47-2.62,.01-1.1,.53-1.93,1.48-2.47,1.17-.67,2.46-.82,3.78-.84Z"/><path class="cls-1" d="M129.91,9.23c.8,.01,1.58,.1,2.34,.37,.35,.13,.69,.29,.98,.53,.51,.43,.68,1.01,.45,1.53-.2,.47-.72,.72-1.38,.63-.57-.08-1.13-.21-1.7-.28-1.4-.17-2.55,.62-2.9,1.99-.18,.7-.2,1.41-.02,2.12,.37,1.5,1.56,2.32,3.09,2.1,.54-.08,1.07-.21,1.61-.29,.7-.11,1.26,.13,1.47,.62,.22,.51,.04,1.06-.51,1.51-.11,.09-.22,.17-.34,.24-2,1.12-5.43,1.07-7.38-.79-1.82-1.74-2.22-3.89-1.52-6.21,.69-2.3,2.37-3.57,4.71-4,.21-.04,.43-.06,.65-.08,.15-.01,.31,0,.47,0Z"/><path class="cls-1" d="M96.88,12.66c0,1.9,0,3.79,0,5.69,0,.28,0,.56-.03,.84-.16,1.36-1.29,2.04-2.58,1.58-.46-.16-.73-.51-.89-.96-.15-.43-.18-.88-.18-1.33,0-3.9,0-7.8,0-11.7,0-.37,.03-.75,.12-1.11,.2-.85,.7-1.26,1.58-1.31,.92-.05,1.57,.37,1.84,1.19,.12,.36,.14,.73,.14,1.1,0,2,0,4.01,0,6.01Z"/><path class="cls-1" d="M86.88,15.15c.02-1.32-.03-2.64,.06-3.95,.1-1.35,.91-1.98,2.24-1.73,.6,.11,1.01,.44,1.22,1.02,.15,.41,.21,.84,.21,1.28,0,2.27,0,4.53,0,6.8,0,.34-.04,.68-.13,1.01-.21,.8-.75,1.24-1.57,1.29-1.23,.08-1.88-.5-1.97-1.76-.09-1.32-.05-2.64-.06-3.95Z"/><path class="cls-1" d="M88.8,3.86c.35-.01,.72,.08,1.08,.25,.53,.26,.85,.67,.86,1.27,.01,.63-.33,1.06-.87,1.32-.76,.36-1.53,.36-2.29-.02-.49-.25-.8-.64-.82-1.2-.03-.59,.27-1,.75-1.3,.38-.24,.8-.32,1.29-.31Z"/></svg>